<?xml version="1.0" encoding="UTF-8"?>
<svg width="12px" height="11px" viewBox="0 0 12 11" version="1.1" xmlns="http://www.w3.org/2000/svg" xmlns:xlink="http://www.w3.org/1999/xlink">
    <!-- Generator: Sketch 39 (31667) - http://www.bohemiancoding.com/sketch -->
    <title>Shape</title>
    <desc>Created with Sketch.</desc>
    <defs></defs>
    <g id="Page-1" stroke="none" stroke-width="1" fill="none" fill-rule="evenodd">
        <g id="browse-data_card-view" transform="translate(-1086.000000, -182.000000)" fill="#39D0AE">
            <g id="search-cta,-generate-pdf-" transform="translate(894.000000, 171.000000)">
                <g id="search-bar">
                    <path d="M203.5,21.565789 C203.500169,21.4456838 203.456748,21.3419557 203.369737,21.2546048 L200.945395,18.8302628 C201.448902,18.2443802 201.779384,17.5834153 201.936842,16.8473682 L201.936842,16.8401313 C202.013488,16.4999244 202.052085,16.1453191 202.052631,15.7763156 C202.052782,14.4548946 201.5848,13.3259473 200.648684,12.3894736 C199.722086,11.4632333 198.597963,11.0000754 197.276316,11 C195.954989,11.000245 194.826042,11.4634029 193.889474,12.3894736 C192.963403,13.3260416 192.500245,14.4549889 192.5,15.7763156 C192.500076,17.0979627 192.963234,18.2220854 193.889474,19.1486838 C194.825948,20.0847995 195.954895,20.5527819 197.276316,20.5526311 C198.450173,20.5529138 199.468155,20.1838349 200.330263,19.4453944 L202.754605,21.8697364 C202.841956,21.9567481 202.945684,22.0001691 203.065789,21.9999995 C203.185876,22.0001691 203.287191,21.9567481 203.369737,21.8697364 C203.456748,21.7871911 203.500169,21.6858753 203.5,21.565789 L203.5,21.565789 Z M200.033553,13.0046052 C200.800488,13.7711827 201.184041,14.6950862 201.18421,15.7763156 C201.184757,16.0827506 201.153397,16.3770488 201.090131,16.6592103 C200.934502,17.3667435 200.584721,17.9891119 200.040789,18.5263155 L200.026316,18.5407891 C199.270141,19.3027494 198.353475,19.6838898 197.276316,19.6842101 C196.195086,19.6840405 195.271183,19.3004879 194.504605,18.5335523 C193.747074,17.7763789 193.368346,16.8573 193.368421,15.7763156 C193.368176,14.6950108 193.746904,13.7711073 194.504605,13.0046052 C195.271108,12.2469041 196.195011,11.868176 197.276316,11.868421 C198.3573,11.8683456 199.276379,12.2470737 200.033553,13.0046052 L200.033553,13.0046052 Z" id="Shape"></path>
                </g>
            </g>
        </g>
    </g>
</svg>