<svg id="SvgjsSvg1000" xmlns="http://www.w3.org/2000/svg" version="1.1" xmlns:xlink="http://www.w3.org/1999/xlink" xmlns:svgjs="http://svgjs.com/svgjs" width="64" height="59"><defs id="SvgjsDefs1001"></defs><path id="SvgjsPath1007" d="M596.74 568.66C595.73 569.5899999999999 594.09 569.5899999999999 592.99 568.66L583.75 560.15C582.75 559.22 582.75 557.7099999999999 583.75 556.6999999999999C584.76 555.77 586.41 555.77 587.5 556.6999999999999L596.74 565.2099999999999C597.74 566.1399999999999 597.74 567.65 596.74 568.66Z " fill="#39d0ae" fill-opacity="1" transform="matrix(1,0,0,1,-563,-532)"></path><path id="SvgjsPath1008" d="M592.75 568.66C593.76 569.5899999999999 595.41 569.5899999999999 596.5 568.66L605.74 560.15C606.74 559.22 606.74 557.7099999999999 605.74 556.6999999999999C604.73 555.77 603.09 555.77 601.99 556.6999999999999L592.75 565.2099999999999C591.75 566.1399999999999 591.75 567.65 592.75 568.66Z " fill="#39d0ae" fill-opacity="1" transform="matrix(1,0,0,1,-563,-532)"></path><path id="SvgjsPath1009" d="M622.15 532L605.06 532L610.3599999999999 536.89L618.2199999999999 536.89C619.6899999999999 536.89 620.8699999999999 537.98 620.8699999999999 539.33L620.8699999999999 582.99C620.8699999999999 584.34 619.6899999999999 585.44 618.2199999999999 585.44L570.8599999999999 585.44C569.3999999999999 585.44 568.2099999999999 584.34 568.2099999999999 582.99L568.2099999999999 539.33C568.2099999999999 537.98 569.4 536.89 570.8599999999999 536.89L578.7299999999999 536.89L584.0299999999999 532L566.9299999999998 532C564.7399999999998 532 562.9999999999999 533.6 562.9999999999999 535.62L562.9999999999999 586.62C562.9999999999999 588.64 564.7399999999999 590.24 566.9299999999998 590.24L622.2499999999999 590.24C624.4399999999999 590.24 626.1799999999998 588.64 626.1799999999998 586.62L626.1799999999998 535.62C626.0899999999998 533.6 624.3499999999998 532 622.1499999999999 532Z " fill="#39d0ae" fill-opacity="1" transform="matrix(1,0,0,1,-563,-532)"></path><path id="SvgjsPath1010" d="M594.65 532C596.11 532 597.3 533.1 597.3 534.44L597.3 565.97C597.3 567.32 596.1099999999999 568.4100000000001 594.65 568.4100000000001C593.1899999999999 568.4100000000001 592 567.32 592 565.97L592 534.44C592 533.1 593.19 532 594.65 532Z " fill="#39d0ae" fill-opacity="1" transform="matrix(1,0,0,1,-563,-532)"></path></svg>