<svg id="SvgjsSvg1011" xmlns="http://www.w3.org/2000/svg" version="1.1" xmlns:xlink="http://www.w3.org/1999/xlink" xmlns:svgjs="http://svgjs.com/svgjs" width="72" height="59"><defs id="SvgjsDefs1012"></defs><path id="SvgjsPath1013" d="M809.4 532C808.0799999999999 532 807 533.35 807 535L807 587.64C807 589.3 808.08 590.64 809.4 590.64L876.5 590.64C877.83 590.64 878.9 589.3 878.9 587.64L878.9 535C878.9 533.35 877.8299999999999 532 876.5 532ZM816.16 537L869.74 537L842.95 562.86ZM841.7 568.56C842.07 568.93 842.51 569.1099999999999 842.95 569.1099999999999C843.3900000000001 569.1099999999999 843.83 568.93 844.2 568.56L849.82 563.02C849.84 563.03 870.7600000000001 586 870.7600000000001 586L815.2 586L836.25 563.19ZM832 560.42L811.8 582.29L811.8 540.5ZM874.1 540.5L874.1 582.24L853.9 560.26Z " fill="#39d0ae" fill-opacity="1" transform="matrix(1,0,0,1,-807,-532)"></path></svg>