<svg xmlns="http://www.w3.org/2000/svg" width="61" height="61">
  <path fill="#39d0ae" d="M0 30.49C0 47.34 13.66 61 30.51 61 47.35 61 61 47.34 61 30.49 61 13.65 47.35 0 30.51 0 13.66 0 0 13.65 0 30.49zm28.7 10.8c-.06.07-.13.13-.21.2-.04.06-.09.09-.14.14-.24.21-.48.38-.7.54-.02.02-.02 0-.02.02-.24.14-.46.27-.7.34-.22.08-.45.12-.67.16h-.34c-.6-.04-1.21-.23-1.74-.63-.05-.01-.1-.05-.14-.09-.16-.08-.28-.21-.4-.32-.07-.05-.13-.11-.18-.16l-7.8-7.79c-.97-.99-1.45-1.91-1.42-2.78.03-.88.41-1.66 1.15-2.39.74-.74 1.55-1.14 2.43-1.19.86-.03 1.79.45 2.78 1.43l5.39 5.38 14.43-14.41c.97-.99 1.9-1.47 2.78-1.44.86.03 1.66.43 2.39 1.17.74.73 1.14 1.53 1.17 2.39.03.88-.43 1.81-1.42 2.8z" />
</svg>
