<svg xmlns="http://www.w3.org/2000/svg" width="61" height="61" viewBox="0 0 61 61">
  <path fill="#FFF" fill-rule="evenodd" d="M30.508 0C13.664 0 0 13.648 0 30.492S13.664 61 30.508 61 61 47.336 61 30.492 47.352 0 30.508 0zm14.83 24.66L28.703 41.294c-.064.064-.128.128-.208.192-.048.063-.096.095-.144.143-.24.21-.48.384-.703.544-.015.016-.015 0-.015.016-.24.144-.464.272-.703.336-.225.08-.45.128-.672.16h-.336c-.607-.032-1.214-.224-1.742-.623-.048-.016-.095-.048-.143-.096-.16-.08-.272-.208-.4-.32-.063-.048-.128-.11-.175-.16l-7.8-7.783c-.975-.99-1.455-1.918-1.423-2.78.03-.88.415-1.663 1.15-2.398.736-.736 1.55-1.135 2.43-1.183.862-.032 1.79.447 2.78 1.423l5.386 5.385 14.43-14.413c.975-.99 1.902-1.47 2.78-1.438.864.03 1.663.43 2.4 1.165.734.735 1.133 1.534 1.165 2.397.033.88-.43 1.806-1.42 2.797z" />
</svg>
