<?xml version="1.0" encoding="UTF-8"?>
<svg width="36px" height="30px" viewBox="0 0 36 30" version="1.1" xmlns="http://www.w3.org/2000/svg" xmlns:xlink="http://www.w3.org/1999/xlink">
    <!-- Generator: Sketch 39.1 (31720) - http://www.bohemiancoding.com/sketch -->
    <title>noun_11204_cc copy</title>
    <desc>Created with Sketch.</desc>
    <defs></defs>
    <g id="Page-1" stroke="none" stroke-width="1" fill="none" fill-rule="evenodd" opacity="0.8">
        <g id="browse-data_list-view" transform="translate(-1107.000000, -330.000000)" fill="#4A4A4A">
            <g id="image-column" transform="translate(1085.000000, 279.000000)">
                <g id="noun_11204_cc-copy" transform="translate(22.000000, 51.000000)">
                    <g id="Group">
                        <path d="M29.6900198,8.07776471 L28.3091881,0.0871764706 L0.0445544554,5.00117647 L4.1870495,28.374 L6.99219802,27.9038824 L6.99219802,29.9121176 L35.6881188,29.9121176 L35.6881188,8.07776471 L29.6900198,8.07776471 L29.6900198,8.07776471 Z M6.99219802,25.5536471 L6.08613861,25.7244706 L2.72031683,6.88094118 L26.4108119,2.736 L27.3603564,8.07741176 L6.99219802,8.07741176 L6.99219802,25.5536471 L6.99219802,25.5536471 Z M33.358099,27.6045882 L9.32221782,27.6045882 L9.32221782,10.3849412 L33.358099,10.3849412 L33.358099,27.6045882 L33.358099,27.6045882 Z" id="Shape"></path>
                        <path d="M10.8755644,11.9230588 L10.8755644,24.6988235 L15.7519604,21.4944706 L18.772396,23.3742353 L26.108198,15.384 L27.0577426,15.7683529 L31.804396,21.1951765 L31.804396,11.9230588 L10.8755644,11.9230588 L10.8755644,11.9230588 Z M15.5359604,17.4349412 C14.4142574,17.4349412 13.4647129,16.4950588 13.4647129,15.384 C13.4647129,14.2729412 14.4142574,13.3327059 15.5359604,13.3327059 C16.6580198,13.3327059 17.6072079,14.2725882 17.6072079,15.384 C17.6072079,16.4950588 16.6580198,17.4349412 15.5359604,17.4349412 L15.5359604,17.4349412 Z" id="Shape"></path>
                    </g>
                </g>
            </g>
        </g>
    </g>
</svg>